<svg width="24" height="24" viewBox="0 0 24 24" fill="none" xmlns="http://www.w3.org/2000/svg">
<path d="M18 2L19.3859 4.61407L22 6L19.3859 7.38593L18 10L16.6141 7.38593L14 6L16.6141 4.61407L18 2Z" fill="white" fill-opacity="0.4"/>
<path d="M10.5 5L13.0845 10.9155L19 13.5L13.0845 16.0845L10.5 22L7.91552 16.0845L2 13.5L7.91552 10.9155L10.5 5Z" fill="white" fill-opacity="0.4"/>
<path d="M18 2L19.3859 4.61407L22 6L19.3859 7.38593L18 10L16.6141 7.38593L14 6L16.6141 4.61407L18 2Z" stroke="white" stroke-width="1.5" stroke-linejoin="round"/>
<path d="M10.5 5L13.0845 10.9155L19 13.5L13.0845 16.0845L10.5 22L7.91552 16.0845L2 13.5L7.91552 10.9155L10.5 5Z" stroke="white" stroke-width="1.5" stroke-linejoin="round"/>
</svg>
