<svg width="70" height="48" viewBox="0 0 70 48" fill="none" xmlns="http://www.w3.org/2000/svg">
<rect x="0.5" y="0.5" width="69" height="47" rx="11.5" stroke="#2F2F2F"/>
<path d="M54.8829 28.5518H54.9327L57.7227 19.4219H60.1319L55.9707 31.2383C55.0209 33.9443 53.9331 34.8359 51.6221 34.8359C51.4455 34.8359 50.8589 34.816 50.7217 34.7764V32.9229C50.8687 32.9427 51.2311 32.9629 51.417 32.9629C52.4645 32.9628 53.0518 32.5167 53.4141 31.3574L53.6299 30.6729L49.6153 19.4219H52.0928L54.8829 28.5518ZM20.0118 18.0547C20.5406 18.0943 22.0686 18.2527 23.0479 19.7197C22.9696 19.7792 21.2365 20.79 21.2559 22.9111C21.2755 25.4488 23.4492 26.2917 23.4688 26.3115C23.449 26.3719 23.1259 27.5115 22.3331 28.6807C21.6378 29.7115 20.9229 30.7222 19.7872 30.7422C18.6904 30.762 18.3277 30.0781 17.0645 30.0781C15.8111 30.0781 15.3994 30.7221 14.3614 30.7617C13.2648 30.8011 12.4325 29.6714 11.7373 28.6406C10.3175 26.5589 9.23043 22.7722 10.6993 20.2148C11.4141 18.9362 12.717 18.1331 14.1172 18.1133C15.1941 18.0936 16.1829 18.8366 16.8389 18.8369C17.4852 18.8369 18.6507 17.9755 20.0118 18.0547ZM44.2198 19.2734C46.9321 19.2736 48.6944 20.7112 48.6944 22.9414V30.6338H46.501V28.7793H46.4522C45.8255 29.9886 44.4446 30.752 42.9561 30.752C40.7529 30.7519 39.215 29.4241 39.2149 27.4219C39.2149 25.4395 40.7037 24.2995 43.4551 24.1309L46.4131 23.9521V23.0996C46.4131 21.8408 45.5997 21.1572 44.1504 21.1572C42.9559 21.1574 42.0845 21.7819 41.9082 22.7334H39.7735C39.842 20.7311 41.7031 19.2734 44.2198 19.2734ZM33.6045 15.1797C36.5617 15.1799 38.628 17.2416 38.628 20.2549C38.628 23.2683 36.5219 25.3496 33.5254 25.3496H30.2452V30.6338H27.875V15.1797H33.6045ZM43.7784 25.7363C42.2998 25.8256 41.5264 26.3909 41.5264 27.3623C41.5265 28.3039 42.3296 28.9189 43.5928 28.9189C45.1986 28.9188 46.4131 27.8875 46.4131 26.4404V25.5684L43.7784 25.7363ZM30.2452 23.3379H32.9678C35.0338 23.3377 36.209 22.2173 36.209 20.2646C36.209 18.312 35.0337 17.2023 32.9776 17.2021H30.2452V23.3379ZM20.0215 14C20.1195 14.9913 19.738 15.9629 19.1602 16.6865C18.5726 17.3903 17.6325 17.9455 16.6924 17.8662C16.5749 16.9146 17.0357 15.9028 17.5743 15.2783C18.1618 14.5551 19.1894 14.0398 20.0215 14Z" fill="white"/>
</svg>
