<svg width="24" height="24" viewBox="0 0 24 24" fill="none" xmlns="http://www.w3.org/2000/svg">
<g clip-path="url(#clip0_63001_2696)">
<path d="M12.9246 9.56749C12.8695 9.28733 12.6503 9.06816 12.3702 9.01304C12.2596 8.99144 11.6824 8.88853 11.0073 8.95665C11.18 8.61955 11.297 8.23979 11.297 7.82817C11.297 6.34154 9.76716 5.2202 9.59266 5.09715C9.34987 4.92595 9.0254 4.92595 8.78261 5.09715C8.60811 5.2202 7.07826 6.34154 7.07826 7.82817C7.07826 8.23979 7.19527 8.61955 7.36793 8.95665C6.69282 8.88853 6.11568 8.99144 6.00508 9.01304C5.72493 9.06816 5.50575 9.28733 5.45064 9.56749C5.41182 9.76542 5.11372 11.4553 6.00014 12.5299C5.72237 12.5865 5.50539 12.8046 5.45064 13.0831C5.40981 13.2909 5.08241 15.1436 6.14058 16.2018C6.77211 16.8331 7.68635 16.9684 8.36513 16.9684C8.40596 16.9684 8.44551 16.9679 8.48451 16.967V17.6719C8.48451 18.0603 8.79927 18.375 9.18763 18.375C9.576 18.375 9.89076 18.0603 9.89076 17.6719V16.967C9.92976 16.9679 9.96931 16.9684 10.01 16.9684C10.6889 16.9684 11.6032 16.8331 12.2345 16.2018C13.2929 15.1436 12.9653 13.2909 12.9244 13.0831C12.8697 12.8046 12.6529 12.5865 12.3751 12.5299C13.2615 11.4553 12.9634 9.76542 12.9246 9.56749ZM11.5936 10.344C11.6065 10.7969 11.5458 11.3861 11.2402 11.6919C10.9346 11.9975 10.3458 12.0579 9.89314 12.0453C9.89277 12.0317 9.89314 11.9107 9.89259 11.8625C9.90046 11.4483 9.97865 10.9648 10.2458 10.6974C10.5518 10.3916 11.1412 10.3312 11.5936 10.344ZM9.18763 6.59459C9.51869 6.92033 9.89076 7.39366 9.89076 7.82817C9.89076 8.26048 9.51704 8.71971 9.18818 9.03062C8.86482 8.72429 8.48451 8.26341 8.48451 7.82817C8.48451 7.39348 8.85676 6.92015 9.18763 6.59459ZM6.78163 10.3442C7.23482 10.3312 7.82387 10.3918 8.12947 10.6974C8.39113 10.9593 8.47279 11.4286 8.48305 11.842C8.48195 11.9063 8.48195 11.9689 8.48305 12.0292C8.48305 12.0343 8.48305 12.0396 8.48286 12.0445C8.03755 12.0566 7.44282 11.9997 7.13502 11.6919C6.82924 11.3861 6.76881 10.7965 6.78163 10.3442ZM7.13502 15.2075C6.82924 14.9017 6.76881 14.3121 6.78163 13.8598C7.23482 13.8468 7.82387 13.9074 8.12947 14.2131C8.43928 14.523 8.49513 15.1231 8.48286 15.5602C8.03755 15.5722 7.44282 15.5151 7.13502 15.2075ZM11.2402 15.2075C10.9346 15.5131 10.3458 15.5735 9.89314 15.5609C9.88124 15.124 9.9358 14.5232 10.2458 14.2131C10.5516 13.9073 11.1412 13.8468 11.5936 13.8597C11.6065 14.3125 11.5458 14.9017 11.2402 15.2075Z" fill="white"/>
<path d="M23.2969 16.9687H22.179L19.1147 13.9484C18.8745 13.7089 18.5903 13.5397 18.288 13.4401C18.3146 12.9701 18.3281 12.5035 18.3281 12.0469C18.3281 7.99621 17.309 4.56921 16.9792 3.56689L18.254 1.01752C18.3629 0.799621 18.3512 0.54071 18.223 0.333435C18.095 0.12616 17.8687 0 17.625 0H0.703134C0.459421 0 0.233103 0.12616 0.105112 0.333435C-0.0230616 0.54071 -0.0347803 0.799621 0.0741674 1.01752L1.34895 3.56689C1.01936 4.56903 9.73877e-06 7.99584 9.73877e-06 12.0469C9.73877e-06 16.0882 1.0146 19.443 1.34766 20.4357L0.0741674 22.9825C-0.0347803 23.2004 -0.0230616 23.4593 0.105112 23.6665C0.233103 23.8738 0.459421 24 0.703134 24H17.625C21.1403 24 24 21.1611 24 17.6719C24 17.2835 23.6852 16.9687 23.2969 16.9687ZM20.1757 16.9687H15.1038L17.1279 14.9447C17.402 14.6706 17.848 14.6706 18.1223 14.9447C18.1234 14.9458 20.1757 16.9687 20.1757 16.9687ZM16.8777 13.47C16.6062 13.5725 16.3517 13.7322 16.1334 13.9502L13.1151 16.9687H12C11.6116 16.9687 11.2969 17.2835 11.2969 17.6719C11.2969 18.4112 11.4247 19.1211 11.6589 19.7812H2.61439C2.25788 18.6601 1.40626 15.6084 1.40626 12.0469C1.40626 8.48583 2.26264 5.36224 2.61842 4.21875H15.7097C16.0657 5.36261 16.9219 8.4862 16.9219 12.0469C16.9219 12.5125 16.907 12.9893 16.8777 13.47ZM16.4874 1.40625L15.7842 2.8125H2.54389L1.84077 1.40625H16.4874ZM1.84077 22.5937L2.54389 21.1875H12.3658C12.7222 21.7185 13.1565 22.1927 13.6525 22.5937H1.84077ZM17.625 22.5937C15.1498 22.5937 13.0955 20.7566 12.7533 18.3744H22.5432C22.1977 20.7566 20.1238 22.5937 17.625 22.5937Z" fill="white"/>
</g>
<defs>
<clipPath id="clip0_63001_2696">
<rect width="24" height="24" fill="white"/>
</clipPath>
</defs>
</svg>
