<svg width="20" height="20" viewBox="0 0 20 20" fill="none" xmlns="http://www.w3.org/2000/svg">
<path d="M1.6665 7.49992C1.6665 6.57944 2.4127 5.83325 3.33317 5.83325H6.6665V4.99992C6.6665 4.07944 7.4127 3.33325 8.33317 3.33325H11.6665C12.587 3.33325 13.3332 4.07944 13.3332 4.99992V5.83325H16.6665C17.587 5.83325 18.3332 6.57944 18.3332 7.49992V14.9999C18.3332 15.9204 17.587 16.6666 16.6665 16.6666H3.33317C2.4127 16.6666 1.6665 15.9204 1.6665 14.9999V7.49992Z" stroke="white" stroke-width="1.3"/>
<path d="M12.4998 10.8333C12.4998 12.214 11.3805 13.3333 9.99984 13.3333C8.61913 13.3333 7.49984 12.214 7.49984 10.8333C7.49984 9.45254 8.61913 8.33325 9.99984 8.33325C11.3805 8.33325 12.4998 9.45254 12.4998 10.8333Z" stroke="white" stroke-width="1.3"/>
</svg>
