<svg width="24" height="24" viewBox="0 0 24 24" fill="none" xmlns="http://www.w3.org/2000/svg">
<g clip-path="url(#clip0_62997_992)">
<path d="M24 8.67282C24 7.53033 23.5726 6.43988 22.7966 5.60232C22.1569 4.91185 21.3282 4.44371 20.4206 4.25147C20.0386 2.37718 18.3774 0.981004 16.4119 0.981004C14.4466 0.981004 12.7856 2.37689 12.4033 4.25096C11.772 4.38375 11.1829 4.64935 10.6674 5.02969C10.5825 4.85813 10.495 4.68896 10.4041 4.52302C9.83648 3.48657 9.17166 2.61722 8.48156 2.00893C7.71858 1.33641 6.92053 0.980957 6.17377 0.980957C5.42695 0.980957 4.62891 1.33641 3.86597 2.00893C3.17587 2.61718 2.51109 3.48652 1.94344 4.52302C0.690234 6.81136 0 9.65494 0 12.5299C0 14.4386 0.495797 16.1796 1.47366 17.7047C2.29495 18.9857 3.29302 19.8803 4.02173 20.5336C4.16634 20.6632 4.30294 20.7856 4.42134 20.8963C4.6823 21.1401 4.80731 21.4873 4.9282 21.823C5.01506 22.0642 5.09709 22.292 5.23172 22.4943C5.53556 22.9508 5.95242 23.019 6.17381 23.019C6.3952 23.019 6.81206 22.9508 7.11591 22.4943C7.25058 22.292 7.33261 22.0642 7.41942 21.823C7.54031 21.4873 7.66533 21.1401 7.92628 20.8963C8.04473 20.7856 8.18133 20.6632 8.32594 20.5336C9.05466 19.8803 10.0527 18.9857 10.874 17.7047C11.0411 17.4442 11.1938 17.1771 11.3326 16.9041C12.3847 18.2831 13.965 19.1888 15.7088 19.3822V22.3159C15.7088 22.7042 16.0236 23.019 16.4119 23.019C16.8002 23.019 17.115 22.7042 17.115 22.3159V19.3821C20.3063 19.031 22.7973 16.3189 22.7973 13.0357C22.7973 12.6391 22.7608 12.2441 22.6885 11.8568C23.5268 11.0129 24 9.87497 24 8.67282ZM6.17381 2.38721C7.18059 2.38721 8.69981 3.89949 9.75159 6.40041C9.76598 6.45164 9.78694 6.50114 9.81295 6.54849C10.2204 7.55021 10.5519 8.70422 10.7478 9.97847H1.59989C2.30189 5.4105 4.75017 2.38721 6.17381 2.38721ZM7.38731 19.4865C7.23712 19.621 7.09533 19.7482 6.96623 19.8688C6.5378 20.2692 6.32222 20.7429 6.17386 21.1352C6.0255 20.7429 5.80992 20.2691 5.38148 19.8688C5.25244 19.7482 5.11059 19.621 4.96041 19.4865C4.16428 18.7728 3.13912 17.8538 2.39461 16.5152H4.58733C4.97564 16.5152 5.29045 16.2004 5.29045 15.8121C5.29045 15.4238 4.97564 15.109 4.58733 15.109H1.78772C1.68675 14.7905 1.6028 14.4533 1.53956 14.0957H2.91933C3.30764 14.0957 3.62245 13.7809 3.62245 13.3926C3.62245 13.0043 3.30764 12.6894 2.91933 12.6894H1.40766C1.40681 12.6366 1.40625 12.5835 1.40625 12.5299C1.40625 12.1403 1.4198 11.7585 1.44497 11.3847H10.9028C10.9279 11.7585 10.9415 12.1403 10.9415 12.5299C10.9415 12.5835 10.9409 12.6366 10.9401 12.6894H7.98769C7.59938 12.6894 7.28456 13.0043 7.28456 13.3926C7.28456 13.7809 7.59938 14.0957 7.98769 14.0957H10.8082C10.7468 14.4427 10.666 14.7706 10.569 15.0808C10.5652 15.0901 10.5616 15.0995 10.5582 15.109H8.91731C8.529 15.109 8.21419 15.4238 8.21419 15.8121C8.21419 16.2004 8.529 16.5152 8.91731 16.5152H9.9532C9.20855 17.8538 8.18344 18.7728 7.38731 19.4865ZM21.4657 11.0715C21.256 11.2453 21.1657 11.5246 21.2337 11.7883C21.3382 12.1934 21.3911 12.6131 21.3911 13.0357C21.3911 15.5425 19.5288 17.6222 17.115 17.9649V15.3075L18.567 13.7848C18.8349 13.5038 18.8243 13.0587 18.5433 12.7907C18.2622 12.5228 17.8172 12.5333 17.5492 12.8144L17.115 13.2697V12.2397L18.567 10.717C18.8349 10.436 18.8243 9.99094 18.5433 9.72296C18.2622 9.45497 17.8172 9.46552 17.5492 9.74663L17.115 10.2019V9.17194L18.567 7.64925C18.8349 7.36819 18.8243 6.92316 18.5433 6.65518C18.2622 6.38719 17.8172 6.39774 17.5492 6.67885L17.115 7.1341V5.71243C17.115 5.32411 16.8002 5.0093 16.4119 5.0093C16.0236 5.0093 15.7088 5.32411 15.7088 5.71243V7.1341L15.2747 6.67885C15.0066 6.39774 14.5616 6.38724 14.2806 6.65518C13.9995 6.92316 13.9889 7.36819 14.2569 7.64925L15.7088 9.17194V10.2019L15.2747 9.74663C15.0066 9.46552 14.5616 9.45502 14.2806 9.72296C13.9995 9.99094 13.9889 10.436 14.2569 10.717L15.7088 12.2397V13.2697L15.2747 12.8144C15.0066 12.5333 14.5616 12.5228 14.2806 12.7907C13.9995 13.0587 13.9889 13.5038 14.2569 13.7848L15.7088 15.3075V17.9645C14.1119 17.7363 12.7085 16.7411 11.9702 15.2861C12.2211 14.4142 12.3477 13.4934 12.3477 12.5299C12.3477 10.3867 11.9639 8.26107 11.2494 6.36975C11.7558 5.90743 12.3949 5.62641 13.0871 5.56988C13.4362 5.54138 13.711 5.26032 13.7318 4.91072C13.8158 3.49566 14.993 2.38721 16.412 2.38721C17.8309 2.38721 19.0081 3.49566 19.0921 4.91068C19.1128 5.26027 19.3877 5.54133 19.7367 5.56983C21.3388 5.70071 22.5938 7.06369 22.5938 8.67277C22.5938 9.60268 22.1826 10.477 21.4657 11.0715Z" fill="white"/>
</g>
<defs>
<clipPath id="clip0_62997_992">
<rect width="24" height="24" fill="white"/>
</clipPath>
</defs>
</svg>
