<svg width="24" height="24" viewBox="0 0 24 24" fill="none" xmlns="http://www.w3.org/2000/svg">
<g clip-path="url(#clip0_63001_2705)">
<path d="M1.92482 10.4727C1.97633 10.4842 2.02775 10.4896 2.07842 10.4896C2.40053 10.4896 2.691 10.2669 2.76398 9.9394C3.11862 8.34831 3.88213 6.86756 4.97196 5.65721C5.94073 4.58134 7.14944 3.74508 8.49698 3.21148L7.9609 4.24081C7.78151 4.58523 7.91529 5.0098 8.25971 5.18914C8.36349 5.24318 8.47448 5.26877 8.58388 5.26877C8.83765 5.26877 9.08275 5.13097 9.20804 4.89032L10.5291 2.35381C10.7082 2.00985 10.575 1.58575 10.2313 1.40599L7.69677 0.0802457C7.35263 -0.0997924 6.92787 0.0333261 6.74788 0.377419C6.56789 0.721511 6.70096 1.14632 7.045 1.32631L8.07625 1.86572C6.48848 2.47689 5.06435 3.45321 3.92703 4.71629C2.67548 6.1062 1.79868 7.80656 1.3915 9.63347C1.30703 10.0124 1.5458 10.3882 1.92482 10.4727Z" fill="white"/>
<path d="M22.0354 13.5302C21.6563 13.4457 21.2807 13.6844 21.1962 14.0634C20.8414 15.6543 20.0779 17.1348 18.9881 18.345C18.019 19.4212 16.8097 20.2576 15.4616 20.7911L15.9989 19.7593C16.1783 19.4149 16.0445 18.9903 15.7001 18.811C15.3557 18.6315 14.9311 18.7654 14.7518 19.1098L13.4307 21.6463C13.2516 21.9902 13.3848 22.4143 13.7285 22.5941L16.2631 23.9199C16.3672 23.9743 16.4786 24.0001 16.5884 24.0001C16.8417 24.0001 17.0865 23.8628 17.212 23.6227C17.392 23.2786 17.259 22.8538 16.9149 22.6738L15.8858 22.1355C17.4728 21.5244 18.8962 20.5484 20.0331 19.286C21.2846 17.8962 22.1614 16.1961 22.5687 14.3694C22.6532 13.9905 22.4144 13.6147 22.0354 13.5302Z" fill="white"/>
<path d="M9.93425 21.2277C8.34521 20.8708 6.86572 20.1045 5.65575 19.012C4.57955 18.0402 3.74245 16.8281 3.20773 15.4774L4.23359 16.014C4.57763 16.1939 5.00249 16.0609 5.18248 15.7168C5.36247 15.3727 5.2294 14.9479 4.88535 14.7679L2.35066 13.4421C2.18525 13.3556 1.99218 13.3385 1.81411 13.3944C1.63599 13.4503 1.48746 13.5748 1.40121 13.7404L0.0801488 16.2769C-0.099233 16.6213 0.0345417 17.0459 0.378962 17.2252C0.482692 17.2793 0.593733 17.3049 0.703134 17.3049C0.956903 17.3049 1.202 17.1671 1.32729 16.9264L1.8623 15.8992C2.47445 17.4891 3.45095 18.9157 4.71333 20.0556C6.10259 21.3101 7.80135 22.1899 9.62601 22.5998C9.6779 22.6114 9.72969 22.617 9.78074 22.617C10.1024 22.617 10.3927 22.3948 10.4661 22.0678C10.5513 21.689 10.3131 21.3128 9.93425 21.2277Z" fill="white"/>
<path d="M23.6216 6.73566C23.2772 6.55618 22.8526 6.6901 22.6733 7.03447L22.1061 8.12351C21.4946 6.52553 20.5155 5.09174 19.2479 3.94696C17.8587 2.69223 16.1598 1.81233 14.3349 1.40229C13.956 1.31708 13.5799 1.55528 13.4948 1.93416C13.4097 2.31298 13.6478 2.68914 14.0267 2.77426C15.6158 3.13133 17.0954 3.89775 18.3054 4.99059C19.3877 5.96802 20.2284 7.18821 20.7625 8.54841L19.6706 7.97722C19.3265 7.79723 18.9017 7.93025 18.7217 8.27439C18.5417 8.61849 18.6747 9.04329 19.0188 9.22329L21.6168 10.5822C21.9569 10.7601 22.3895 10.6236 22.5663 10.284L23.9204 7.68403C24.0997 7.33961 23.966 6.91499 23.6216 6.73566Z" fill="white"/>
<path d="M13.6026 18.1473C13.6071 18.146 13.6117 18.1446 13.6162 18.1433C14.8779 17.7578 15.884 16.8732 16.449 15.6523C17.0698 14.3108 17.0871 12.6912 16.4952 11.3201C16.325 10.9259 16.0955 10.481 15.8524 10.0099C15.0103 8.37789 13.8569 6.14281 14.7187 4.85582C14.88 4.61504 14.877 4.30005 14.7112 4.06236C14.5455 3.82472 14.2509 3.71316 13.9692 3.78117C13.8868 3.80114 11.9387 4.28791 10.9904 5.87474C10.7531 6.2718 10.5991 6.69783 10.5287 7.15024C10.3536 7.05551 10.1728 6.98263 9.99334 6.94766C9.77135 6.90426 9.54205 6.97053 9.37724 7.1254C9.21244 7.28032 9.13224 7.50507 9.16168 7.72931C9.29123 8.71565 8.84918 9.36789 8.28961 10.1936C8.01587 10.5975 7.73281 11.0152 7.49301 11.5074C6.83881 12.8503 6.94089 14.2862 7.79646 15.7752C8.72393 17.3892 10.4296 18.3425 12.2159 18.3425C12.6469 18.3425 13.0828 18.287 13.5134 18.1718C13.543 18.1639 13.5727 18.1557 13.6026 18.1473ZM11.7843 16.9105C11.4658 16.8516 11.1807 16.6931 10.963 16.4489C10.6778 16.129 10.5432 15.6934 10.5937 15.2537C10.6454 14.8042 11.0866 14.2254 11.5132 13.6657C11.8477 13.2269 12.2204 12.7379 12.466 12.2116C12.7443 12.8611 12.726 13.6541 12.4104 14.5746C12.3321 14.803 12.3764 15.0556 12.5279 15.2436C12.6793 15.4316 12.9167 15.5286 13.1564 15.501C13.2316 15.4923 13.321 15.4733 13.4177 15.4422C13.4077 15.7843 13.3198 16.1102 13.1547 16.3715C12.9288 16.7288 12.5855 16.9179 12.134 16.9349C12.0168 16.9323 11.9 16.9244 11.7843 16.9105ZM8.75726 12.1233C8.95314 11.7212 9.20761 11.3457 9.45369 10.9826C9.8636 10.3777 10.3103 9.71854 10.4988 8.89124C10.6036 8.99347 10.7035 9.09949 10.7887 9.19994C11.0007 9.45104 11.3582 9.52177 11.6498 9.37042C11.9414 9.21911 12.0893 8.88603 12.0061 8.56824C11.8045 7.79854 11.8658 7.15563 12.1935 6.60282C12.404 6.2478 12.7029 5.9691 13.0095 5.75503C12.9254 7.40434 13.8645 9.22413 14.6027 10.6547C14.8344 11.1037 15.0532 11.5277 15.2042 11.8774C15.64 12.8871 15.6283 14.0776 15.1728 15.0618C15.0842 15.2533 14.9663 15.4636 14.8112 15.6725C14.8634 15.0375 14.7487 14.3702 14.4629 13.7688C14.3807 13.5958 14.2344 13.4685 14.062 13.4076C14.1027 12.3993 13.8078 11.6526 13.4925 11.1504C12.983 10.339 12.3164 9.98196 12.2421 9.94395C11.9778 9.80868 11.6571 9.854 11.4407 10.0571C11.2242 10.2602 11.1586 10.5774 11.2768 10.8497C11.4843 11.3279 11.0623 11.9377 10.3949 12.8134C9.85295 13.5243 9.29264 14.2595 9.19674 15.0932C9.1875 15.1734 9.18188 15.2537 9.17916 15.3338C9.1216 15.2502 9.06699 15.1638 9.01571 15.0746C8.39803 13.9997 8.31347 13.0342 8.75726 12.1233Z" fill="white"/>
</g>
<defs>
<clipPath id="clip0_63001_2705">
<rect width="24" height="24" fill="white"/>
</clipPath>
</defs>
</svg>
