<svg width="70" height="48" viewBox="0 0 70 48" fill="none" xmlns="http://www.w3.org/2000/svg">
<rect x="0.5" y="0.5" width="69" height="47" rx="11.5" stroke="#2F2F2F"/>
<path d="M54.9941 28.6378H55.0293L57.9482 21.3117H60L53.6934 36.0001H51.7471L54.0918 30.8615L49.9531 21.3117H52.0049L54.9941 28.6378ZM45.124 20.9787C46.5188 20.9788 47.6209 21.3594 48.4297 22.1085C49.2384 22.8578 49.6367 23.9047 49.6367 25.2247V31.5167H47.832V30.1007H47.75C46.9646 31.2662 45.932 31.8497 44.6309 31.8497C43.5292 31.8497 42.591 31.5165 41.8525 30.8507C41.1258 30.2323 40.7159 29.316 40.7393 28.3527C40.7393 27.2943 41.1376 26.4615 41.9229 25.8312C42.7083 25.2009 43.7642 24.8917 45.0771 24.8917C46.2023 24.8918 47.1171 25.1056 47.8438 25.5099V25.0705C47.8438 24.4164 47.5615 23.7974 47.0693 23.3693C46.5654 22.9176 45.9208 22.6673 45.2529 22.6671C44.1978 22.6671 43.3655 23.1197 42.7559 24.0236L41.0908 22.965C41.9818 21.6448 43.3304 20.9787 45.124 20.9787ZM36.1787 16.6017C37.386 16.5779 38.5583 17.0415 39.4141 17.8976C41.1256 19.5151 41.2311 22.2391 39.625 23.9874C39.5547 24.0587 39.4843 24.13 39.4141 24.2013C38.5349 25.0457 37.4565 25.4738 36.1787 25.4738H33.0605V31.5158H31.1729V16.6017H36.1787ZM45.3701 26.4376C44.6082 26.4377 43.9631 26.6286 43.4473 26.9972C42.9435 27.3658 42.6857 27.8292 42.6855 28.3878C42.6856 28.8871 42.92 29.3514 43.3066 29.6369C43.7287 29.9697 44.245 30.1487 44.7725 30.1369C45.5697 30.1368 46.3318 29.8151 46.8945 29.2443C47.5158 28.6498 47.8329 27.9483 47.833 27.1398C47.2468 26.6641 46.4252 26.4258 45.3701 26.4376ZM33.0605 23.6427H36.2266C36.9299 23.6664 37.6102 23.3806 38.0908 22.8693C39.0753 21.8347 39.0518 20.1701 38.0322 19.171C37.5516 18.6954 36.9065 18.4328 36.2266 18.4328H33.0605V23.6427Z" fill="white"/>
<path d="M26.544 24.1659C26.544 23.5831 26.4971 23.0003 26.4034 22.4294H18.4434V25.7239H23.0037C22.8161 26.7825 22.2065 27.734 21.3155 28.3286V30.4695H24.0353C25.6296 28.9828 26.544 26.7825 26.544 24.1659Z" fill="#4285F4"/>
<path d="M18.4437 32.539C20.718 32.539 22.6406 31.7778 24.0357 30.4695L21.3159 28.3287C20.5539 28.852 19.5809 29.1493 18.4437 29.1493C16.2398 29.1493 14.3758 27.6388 13.7076 25.6169H10.9058V27.8291C12.336 30.7193 15.255 32.539 18.4437 32.539Z" fill="#34A853"/>
<path d="M13.708 25.6169C13.3563 24.5584 13.3563 23.4048 13.708 22.3343V20.134H10.9058C9.69808 22.5484 9.69808 25.4029 10.9058 27.8172L13.708 25.6169Z" fill="#FBBC04"/>
<path d="M18.4437 18.802C19.6512 18.7782 20.8118 19.2421 21.6793 20.0865L24.0943 17.6365C22.5585 16.1855 20.5422 15.3886 18.4437 15.4124C15.255 15.4124 12.336 17.244 10.9058 20.1341L13.7076 22.3463C14.3758 20.3125 16.2398 18.802 18.4437 18.802Z" fill="#EA4335"/>
</svg>
