<svg width="24" height="24" viewBox="0 0 24 24" fill="none" xmlns="http://www.w3.org/2000/svg">
<path d="M6.43242 14.0863L5.73625 16.6852L3.19176 16.739C2.43133 15.3286 2 13.7149 2 12C2 10.3418 2.40328 8.77804 3.11813 7.40112H3.11867L5.38399 7.81644L6.37633 10.0682C6.16863 10.6737 6.05543 11.3237 6.05543 12C6.05551 12.7341 6.18848 13.4374 6.43242 14.0863Z" fill="#FBBB00"/>
<path d="M21.8252 10.1318C21.94 10.7368 21.9999 11.3615 21.9999 12C21.9999 12.7159 21.9246 13.4143 21.7812 14.0879C21.2944 16.3802 20.0224 18.3818 18.2604 19.7983L18.2598 19.7978L15.4065 19.6522L15.0027 17.1313C16.1719 16.4456 17.0857 15.3725 17.567 14.0879H12.2197V10.1318H17.645H21.8252Z" fill="#518EF8"/>
<path d="M18.26 19.7977L18.2606 19.7983C16.5469 21.1757 14.3699 21.9999 12.0001 21.9999C8.1919 21.9999 4.88092 19.8713 3.19189 16.7389L6.43256 14.0862C7.27705 16.34 9.45123 17.9444 12.0001 17.9444C13.0957 17.9444 14.1221 17.6483 15.0029 17.1312L18.26 19.7977Z" fill="#28B446"/>
<path d="M18.383 4.30219L15.1434 6.95438C14.2319 6.38461 13.1544 6.05547 12 6.05547C9.39344 6.05547 7.1786 7.73348 6.37641 10.0681L3.11871 7.4011H3.11816C4.78246 4.19231 8.1352 2 12 2C14.4264 2 16.6511 2.8643 18.383 4.30219Z" fill="#F14336"/>
</svg>
