<svg width="24" height="24" viewBox="0 0 24 24" fill="none" xmlns="http://www.w3.org/2000/svg">
<path d="M23.9866 13.0937C23.8604 10.0767 22.7649 7.07797 20.9017 4.64975C19.242 2.48694 17.2378 1.14331 15.6713 1.14331H15.6712C14.587 1.14331 13.2746 1.79323 12.0008 2.94584C10.7414 1.80495 9.42757 1.14331 8.32892 1.14331H8.32887C8.32882 1.14331 8.32882 1.14331 8.32878 1.14331C6.76221 1.14331 4.75803 2.48694 3.09837 4.6498C1.23509 7.07797 0.13948 10.0768 0.0133859 13.0937C-0.115942 16.1894 0.69387 18.7414 2.35535 20.4738C3.82896 22.0103 5.95039 22.8565 8.32878 22.8565C9.65379 22.8565 10.8988 22.5935 11.9967 22.0952C13.0963 22.5939 14.3565 22.8565 15.6713 22.8565C18.0496 22.8565 20.1709 22.0103 21.6446 20.4738C23.3061 18.7414 24.1159 16.1894 23.9866 13.0937ZM11.8797 20.5444C11.6877 20.5568 11.5044 20.6456 11.3765 20.7973C10.4696 21.2042 9.43503 21.4189 8.32868 21.4189C6.34573 21.4189 4.59289 20.7298 3.39293 19.4787C2.00909 18.0358 1.33718 15.8487 1.44982 13.1538C1.60343 9.47848 3.26318 6.79653 4.23884 5.525C5.79096 3.50225 7.44687 2.58097 8.32868 2.58097C8.32873 2.58097 8.32873 2.58097 8.32878 2.58097H8.32882C9.02811 2.58097 10.2143 3.16109 11.4495 4.40975C11.464 4.42686 11.4792 4.44359 11.4955 4.45958C11.503 4.46689 11.511 4.47322 11.5188 4.48015C11.8184 4.78878 12.1204 5.13636 12.4187 5.525C13.3943 6.79653 15.0542 9.47848 15.2077 13.1538C15.3204 15.8487 14.6484 18.0358 13.2646 19.4787C12.8614 19.8991 12.3955 20.2557 11.8797 20.5444ZM20.6071 19.4787C19.4071 20.7298 17.6543 21.4189 15.6712 21.4189C14.9384 21.4189 14.2294 21.3234 13.5692 21.1398C13.8282 20.9349 14.073 20.7127 14.3021 20.4738C15.9636 18.7414 16.7734 16.1894 16.6441 13.0938C16.518 10.0768 15.4225 7.07801 13.5592 4.6498C13.3786 4.41448 13.1938 4.18958 13.0061 3.97428C14.1413 2.9569 15.1069 2.58092 15.6711 2.58092H15.6712H15.6712C16.553 2.58092 18.209 3.5022 19.7611 5.52495C20.7367 6.79648 22.3965 9.47844 22.5501 13.1538C22.6628 15.8487 21.9909 18.0357 20.6071 19.4787Z" fill="white"/>
<path d="M8.32869 10.5364C5.97904 10.5364 4.06738 12.448 4.06738 14.7977C4.06738 17.1474 5.97899 19.059 8.32869 19.059C10.6784 19.059 12.59 17.1474 12.59 14.7977C12.59 12.448 10.6784 10.5364 8.32869 10.5364ZM8.32869 17.6214C6.77174 17.6214 5.50504 16.3547 5.50504 14.7977C5.50504 13.2408 6.77174 11.9741 8.32869 11.9741C9.88565 11.9741 11.1524 13.2408 11.1524 14.7977C11.1524 16.3547 9.88565 17.6214 8.32869 17.6214Z" fill="white"/>
</svg>
